<svg width="154" height="154" viewBox="0 0 154 154" fill="none" xmlns="http://www.w3.org/2000/svg">
<circle cx="77" cy="77" r="77" fill="#D51E1E"/>
<rect x="62.5386" y="62.8875" width="33.7608" height="5.22947" rx="2.61474" transform="rotate(-3.17358 62.5386 62.8875)" fill="#BBF8E9"/>
<rect x="71.5148" y="66.9122" width="16.7539" height="21.3582" transform="rotate(-5.32761 71.5148 66.9122)" fill="#BBF8E9"/>
<ellipse cx="83.3667" cy="109.532" rx="24.5" ry="25" transform="rotate(-20.7881 83.3667 109.532)" fill="#BBF8E9"/>
<path d="M104.401 109.332L61.9235 111.553C64.408 118.097 65.8146 133.073 85.0622 131.649C103.917 130.254 105.692 115.082 104.401 109.332Z" fill="#7D13D6" stroke="#A25DDC" stroke-linecap="round" stroke-linejoin="round"/>
<g clip-path="url(#clip0)">
<path d="M86.4922 121.896C85.7833 123.249 84.3171 123.991 82.7673 123.739L70.8452 121.806C68.8185 121.477 67.52 119.676 67.8487 117.649L68.042 116.457L82.5869 118.816C82.8318 120.324 83.9885 121.49 85.5384 121.741L86.4922 121.896ZM91.4031 100.668C93.4298 100.997 94.7283 102.798 94.3997 104.825L94.2063 106.017L91.8219 105.631L92.0152 104.438C92.1313 103.723 91.7317 103.169 91.0164 103.053C90.3011 102.937 89.7468 103.336 89.6308 104.052L87.1173 119.55L85.9251 119.357C85.2098 119.241 84.8102 118.687 84.9262 117.971L85.1196 116.779L72.0053 114.652L74.1322 101.538C74.4609 99.5114 76.2621 98.2129 78.2888 98.5416L91.4031 100.668ZM77.5154 103.31L77.1287 105.695L85.4742 107.048L85.8609 104.664L77.5154 103.31ZM76.742 108.079L76.3553 110.464L83.5086 111.624L83.8953 109.239L76.742 108.079Z" fill="black"/>
</g>
<circle cx="41.8474" cy="72.8474" r="9.84743" fill="#E4A951"/>
<g clip-path="url(#clip1)">
<path d="M38.4426 65.8352L36.5776 76.5164L40.4412 78.794L44.9373 78.7549L48.6638 68.5739L38.4434 65.8354L38.4426 65.8352ZM45.7247 71.4435L40.8289 70.1317L40.5944 71.4735L45.2576 72.723L43.8538 76.5568L41.0343 76.5809L38.6081 75.1512L38.9676 73.0936L40.2521 73.4378L40.0697 74.4837L41.3918 75.2495L41.3949 75.2496L42.9236 75.2469L43.5159 73.6275L39.0816 72.4394L39.7735 68.4777L46.1827 70.195L45.7254 71.4437L45.7247 71.4435Z" fill="black"/>
</g>
<circle cx="67" cy="26" r="16" fill="#85B6FF"/>
<g clip-path="url(#clip2)">
<path d="M57.1658 19.4656L72.2487 15.4242L75.027 31.2794L69.3102 34.6871L62.689 34.5843L57.1658 19.4656ZM70.2899 19.3458L60.8234 21.8803L61.4804 23.722L68.7534 21.7752L69.0936 23.7753L64.3239 25.0534L64.9919 26.8549L69.4323 25.6651L69.8476 28.2662L67.9122 29.4039L65.634 29.3901L65.0917 27.911L63.2178 28.4132L64.1684 31.1266L68.4194 31.2971L71.984 29.1649L70.2899 19.3458Z" fill="black"/>
</g>
<circle cx="109.847" cy="47.8474" r="9.84743" fill="#FFD233"/>
<g clip-path="url(#clip3)">
<path d="M116.532 44.2287L112.742 53.2209L108.533 53.4736L105.015 51.1504L106.229 41.468L116.532 44.2287Z" stroke="black" stroke-width="1.6" stroke-linecap="round" stroke-linejoin="round"/>
<path d="M107.792 44.6477L109.724 45.1654L108.344 50.317L107.228 49.3279" stroke="black" stroke-width="1.6" stroke-linecap="round" stroke-linejoin="round"/>
<path d="M113.588 46.2006L111.978 45.7693C111.893 45.7464 111.802 45.7584 111.725 45.8026C111.649 45.8468 111.593 45.9196 111.57 46.005L111.052 47.9368C111.029 48.0222 111.041 48.1132 111.086 48.1898C111.13 48.2663 111.203 48.3222 111.288 48.3451L112.204 48.5906C112.25 48.603 112.293 48.6251 112.33 48.6554C112.367 48.6858 112.397 48.7237 112.418 48.7666C112.439 48.8095 112.45 48.8564 112.451 48.9041C112.452 48.9518 112.443 48.9992 112.425 49.0431L111.65 50.8577L110.276 50.8346" stroke="black" stroke-width="1.6" stroke-linecap="round" stroke-linejoin="round"/>
</g>
<defs>
<clipPath id="clip0">
<rect width="28.9867" height="28.9867" fill="white" transform="translate(69.1379 94.6104) rotate(9.21192)"/>
</clipPath>
<clipPath id="clip1">
<rect width="12" height="12" fill="white" transform="translate(37.7573 65.6516) rotate(15)"/>
</clipPath>
<clipPath id="clip2">
<rect width="24" height="24" fill="white" transform="translate(52.3031 17.5147) rotate(-15)"/>
</clipPath>
<clipPath id="clip3">
<rect width="16" height="16" fill="white" transform="translate(104.343 38.202) rotate(15)"/>
</clipPath>
</defs>
</svg>
